<svg width="100" height="100" viewBox="0 0 100 100" fill="none" xmlns="http://www.w3.org/2000/svg">
<rect width="100" height="100" fill="#4E69F6"/>
<g clip-path="url(#clip0_447_272)">
<path d="M52.1034 59.4287C52.3171 58.9782 52.484 58.5071 52.6016 58.0226C53.7797 57.6529 54.8425 56.9854 55.6871 56.0847C56.5317 55.1839 57.1295 54.0804 57.4227 52.881C57.7159 51.6815 57.6946 50.4267 57.3607 49.2379C57.0269 48.0491 56.3919 46.9666 55.5172 46.0951C54.6425 45.2236 53.5576 44.5926 52.3676 44.2632C51.1776 43.9338 49.9227 43.9171 48.7243 44.2147C47.5259 44.5123 46.4247 45.1142 45.5271 45.9621C44.6294 46.81 43.9659 47.8753 43.6005 49.0548C43.1347 49.1846 42.6823 49.3588 42.2498 49.5751L40.0355 50.6823C40.1454 48.6535 40.8406 46.6999 42.037 45.0577C43.2335 43.4156 44.8799 42.1551 46.7774 41.4286C48.6748 40.7022 50.7421 40.5409 52.7293 40.9642C54.7165 41.3875 56.5385 42.3773 57.9752 43.814C59.4119 45.2507 60.4017 47.0727 60.825 49.0599C61.2483 51.0471 61.087 53.1144 60.3606 55.0118C59.6341 56.9093 58.3736 58.5558 56.7315 59.7522C55.0893 60.9486 53.1358 61.6438 51.107 61.7537L52.1034 59.4287ZM72.032 51.1362C71.9043 45.5081 69.579 40.1535 65.5535 36.2182C61.5279 32.283 56.122 30.0796 50.4925 30.0796C44.863 30.0796 39.4571 32.283 35.4315 36.2182C31.406 40.1535 29.0806 45.5081 28.953 51.1362C28.9576 52.648 29.1246 54.155 29.4512 55.6312L32.5291 54.1587C32.3635 53.1709 32.2821 52.1709 32.2855 51.1694C32.2833 47.5615 33.3515 44.0341 35.3548 41.0335C37.3581 38.0329 40.2065 35.694 43.5395 34.3128C46.8726 32.9316 50.5404 32.5702 54.0789 33.2743C57.6174 33.9785 60.8675 35.7165 63.4179 38.2684C65.9683 40.8204 67.7043 44.0715 68.4063 47.6104C69.1083 51.1494 68.7447 54.817 67.3615 58.1492C65.9783 61.4814 63.6376 64.3284 60.6358 66.3299C57.634 68.3314 54.1059 69.3974 50.498 69.393C49.4885 69.3904 48.481 69.3015 47.4866 69.1273L46.0141 72.2162C47.4866 72.5425 48.9898 72.7096 50.498 72.7144C56.2103 72.7085 61.687 70.4367 65.7262 66.3975C69.7654 62.3583 72.0372 56.8817 72.043 51.1694L72.032 51.1362ZM83.1034 51.1362C83.1139 46.4451 82.1125 41.8069 80.1673 37.5381C78.2221 33.2693 75.379 29.4704 71.8319 26.4004C68.2848 23.3305 64.1172 21.0618 59.6135 19.7492C55.1098 18.4365 50.376 18.1109 45.7349 18.7943C41.0939 19.4778 36.6549 21.1544 32.7208 23.7096C28.7867 26.2649 25.4501 29.6387 22.9386 33.6008C20.4272 37.563 18.7999 42.0203 18.1679 46.6687C17.536 51.317 17.9141 56.047 19.2766 60.5358L22.3212 59.0855C20.5581 52.8383 20.9166 46.1828 23.3405 40.1611C25.7643 34.1394 30.1168 29.0915 35.7162 25.8079C41.3157 22.5243 47.846 21.1904 54.2846 22.015C60.7233 22.8396 66.7067 25.7762 71.2979 30.3649C75.8892 34.9536 78.829 40.9354 79.6571 47.3736C80.4852 53.8118 79.1549 60.3428 75.8743 65.9441C72.5938 71.5453 67.5483 75.9005 61.5279 78.3277C55.5076 80.7548 48.8523 81.1169 42.6041 79.3573L41.1427 82.4019C46.0108 83.8673 51.1544 84.1728 56.1618 83.294C61.1692 82.4151 65.9013 80.3764 69.9796 77.3409C74.0578 74.3053 77.3688 70.3573 79.6477 65.8128C81.9266 61.2682 83.1101 56.2533 83.1034 51.1694V51.1362Z" fill="white"/>
<path d="M45.4716 52.963L17.6158 66.293C17.1775 66.5002 16.8113 66.834 16.5645 67.2513C16.3178 67.6687 16.2018 68.1504 16.2316 68.6343C16.2614 69.1182 16.4356 69.5821 16.7317 69.966C17.0278 70.3499 17.4322 70.6363 17.8926 70.788L26.4951 73.6555C26.8518 73.7724 27.176 73.9716 27.4415 74.2371C27.7069 74.5025 27.9061 74.8267 28.023 75.1834L30.8905 83.7859C31.0423 84.2464 31.3286 84.6507 31.7125 84.9468C32.0964 85.2429 32.5603 85.4171 33.0442 85.4469C33.5281 85.4767 34.0099 85.3607 34.4272 85.114C34.8446 84.8672 35.1784 84.501 35.3855 84.0627L48.6712 56.207C48.8777 55.7575 48.9425 55.2558 48.8569 54.7686C48.7713 54.2814 48.5394 53.8318 48.192 53.4797C47.8446 53.1275 47.3983 52.8895 46.9123 52.7972C46.4264 52.7049 45.9238 52.7627 45.4716 52.963Z" fill="#62D84E"/>
</g>
<defs>
<clipPath id="clip0_447_272">
<rect width="70.8571" height="70.8571" fill="white" transform="translate(14.5713 15.1431)"/>
</clipPath>
</defs>
</svg>
