<svg width="100" height="100" viewBox="0 0 100 100" fill="none" xmlns="http://www.w3.org/2000/svg">
<rect width="100" height="100" fill="#4E69F6"/>
<g clip-path="url(#clip0_447_271)">
<path d="M70.2543 45.2856C66.6533 45.172 63.1384 46.3997 60.3912 48.7307C57.644 51.0616 55.8602 54.3297 55.3859 57.9012C54.9115 61.4726 55.7803 65.093 57.8238 68.0603C59.8673 71.0275 62.9399 73.1302 66.4458 73.9606C67.0481 74.1062 67.5845 74.449 67.9696 74.9344C68.3548 75.4199 68.5666 76.0202 68.5715 76.6398V80.1605C68.5725 80.5032 68.6794 80.8371 68.8776 81.1166C69.0758 81.3961 69.3556 81.6074 69.6786 81.7216C69.8636 81.7869 70.0582 81.8206 70.2543 81.8213C70.4947 81.8206 70.732 81.7678 70.9499 81.6665C71.1678 81.5652 71.3611 81.4178 71.5165 81.2345L81.2926 69.7313C83.8066 67.0641 85.1981 63.5319 85.1786 59.8666C85.1261 55.9562 83.5259 52.226 80.7286 49.493C77.9313 46.7601 74.1649 45.2471 70.2543 45.2856Z" fill="#62D84E"/>
<path d="M60.6996 23.4196C57.8267 20.8618 54.4464 18.9392 50.7796 17.7773C47.1127 16.6155 43.242 16.2406 39.4203 16.6771C34.465 17.2133 29.7564 19.1166 25.8204 22.1744C21.8843 25.2322 18.876 29.3241 17.1313 33.993C15.3866 38.6619 14.9744 43.724 15.9406 48.6136C16.9068 53.5033 19.2134 58.0281 22.6028 61.6825L22.7357 61.8043L42.5646 79.1975C42.8731 79.4615 43.2657 79.6068 43.6717 79.6071C43.8893 79.6071 44.1047 79.5641 44.3056 79.4805C44.5065 79.3969 44.6888 79.2744 44.8422 79.12C44.9955 78.9657 45.1168 78.7825 45.199 78.5811C45.2813 78.3797 45.3228 78.164 45.3214 77.9464V72.8314C45.3127 72.1911 45.5299 71.5682 45.9349 71.0721C46.3398 70.5761 46.9066 70.2386 47.5357 70.1189C60.5889 68.2146 69.6785 57.2428 69.6785 43.4589C69.6725 39.6755 68.8698 35.9358 67.3228 32.4832C65.7758 29.0306 63.5191 25.9424 60.6996 23.4196ZM47.0928 66.8307C45.6692 67.0623 44.3747 67.7935 43.4413 68.8932C42.508 69.9929 41.997 71.3891 42 72.8314V74.2818L24.9832 59.3575C22.0251 56.1504 20.0161 52.1845 19.1804 47.9023C18.3446 43.6201 18.715 39.1899 20.2501 35.1059C21.7852 31.0219 24.4247 27.4446 27.8741 24.7731C31.3236 22.1016 35.4475 20.441 39.7857 19.9764C43.111 19.5765 46.4833 19.8848 49.681 20.8811C52.8787 21.8774 55.8294 23.5391 58.3391 25.757C60.8488 27.975 62.8607 30.6989 64.2426 33.7498C65.6245 36.8008 66.3451 40.1096 66.3571 43.4589C66.3571 55.56 58.441 65.2143 47.0928 66.8307ZM46.4285 43.5807C46.4373 44.3489 46.2175 45.1024 45.7971 45.7455C45.3767 46.3885 44.7746 46.892 44.0674 47.1921C43.3601 47.4922 42.5796 47.5753 41.8251 47.4308C41.0705 47.2864 40.3759 46.9208 39.8295 46.3807C39.2832 45.8406 38.9097 45.1502 38.7565 44.3974C38.6034 43.6445 38.6775 42.8631 38.9695 42.1525C39.2614 41.4418 39.758 40.834 40.3962 40.4062C41.0343 39.9784 41.7853 39.75 42.5535 39.75C43.5812 39.75 44.5669 40.1582 45.2936 40.8849C46.0203 41.6116 46.4285 42.5973 46.4285 43.625V43.5807ZM34.25 43.5807C34.2587 44.3489 34.039 45.1024 33.6185 45.7455C33.1981 46.3885 32.596 46.892 31.8888 47.1921C31.1816 47.4922 30.4011 47.5753 29.6465 47.4308C28.8919 47.2864 28.1973 46.9208 27.651 46.3807C27.1046 45.8406 26.7311 45.1502 26.578 44.3974C26.4248 43.6445 26.4989 42.8631 26.7909 42.1525C27.0828 41.4418 27.5794 40.834 28.2176 40.4062C28.8558 39.9784 29.6067 39.75 30.375 39.75C31.4027 39.75 32.3883 40.1582 33.115 40.8849C33.8417 41.6116 34.25 42.5973 34.25 43.625V43.5807ZM58.6071 43.5807C58.6159 44.3489 58.3961 45.1024 57.9757 45.7455C57.5553 46.3885 56.9532 46.892 56.2459 47.1921C55.5387 47.4922 54.7582 47.5753 54.0036 47.4308C53.2491 47.2864 52.5545 46.9208 52.0081 46.3807C51.4617 45.8406 51.0883 45.1502 50.9351 44.3974C50.782 43.6445 50.8561 42.8631 51.148 42.1525C51.44 41.4418 51.9366 40.834 52.5747 40.4062C53.2129 39.9784 53.9638 39.75 54.7321 39.75C55.7598 39.75 56.7454 40.1582 57.4721 40.8849C58.1988 41.6116 58.6071 42.5973 58.6071 43.625V43.5807Z" fill="white"/>
</g>
<defs>
<clipPath id="clip0_447_271">
<rect width="70.8571" height="70.8571" fill="white" transform="translate(15.4287 14.2856)"/>
</clipPath>
</defs>
</svg>
