<svg width="100" height="100" viewBox="0 0 100 100" fill="none" xmlns="http://www.w3.org/2000/svg">
<rect width="100" height="100" fill="#4E69F6"/>
<g clip-path="url(#clip0_447_269)">
<path d="M74.1251 78.8569H32.2858C22.4919 78.8569 14.2301 71.479 13.4876 62.0622C13.1515 57.9439 14.2262 53.8337 16.535 50.4068C18.8438 46.98 22.2495 44.4404 26.1926 43.2051C26.6776 43.0663 27.1178 42.8028 27.4694 42.441C27.8209 42.0791 28.0715 41.6314 28.1962 41.1426C29.5391 35.4842 32.9772 30.5453 37.8174 27.3216C42.6577 24.0978 48.5401 22.8289 54.2789 23.7707C60.0177 24.7125 65.186 27.7949 68.7421 32.3965C72.2982 36.9981 73.9775 42.7768 73.4415 48.5676C73.3553 49.3175 73.5478 50.073 73.9824 50.6902C74.4171 51.3074 75.0635 51.7432 75.7987 51.9147C77.3634 52.148 78.8728 52.6631 80.2537 53.4351C82.4266 54.5753 84.2585 56.271 85.5628 58.3496C86.8671 60.4282 87.5972 62.8154 87.6787 65.2679C87.6833 67.0508 87.3362 68.817 86.6571 70.4655C85.9781 72.114 84.9805 73.6123 83.7214 74.8746C82.4624 76.1369 80.9667 77.1384 79.32 77.8218C77.6733 78.5051 75.908 78.8569 74.1251 78.8569ZM50.5537 26.9997C46.1836 27.0031 41.9418 28.4765 38.5107 31.1829C35.0795 33.8893 32.6587 37.6714 31.6376 41.9204C31.3734 43.0074 30.8299 44.0065 30.0609 44.8189C29.2919 45.6313 28.3241 46.2288 27.2533 46.5522C24.0598 47.5417 21.2995 49.5912 19.4286 52.3621C17.5578 55.1329 16.6885 58.4592 16.9644 61.7911C17.3593 65.5556 19.1528 69.0347 21.99 71.5402C24.8272 74.0456 28.5014 75.3949 32.2858 75.3211H74.1251C75.4426 75.3212 76.7473 75.0613 77.9642 74.5563C79.1812 74.0514 80.2866 73.3114 81.2171 72.3787C82.1477 71.4459 82.8851 70.3388 83.3872 69.1206C83.8892 67.9025 84.1461 66.5973 84.143 65.2797C84.072 63.4408 83.5113 61.6541 82.5189 60.1043C81.5264 58.5545 80.1382 57.2978 78.4976 56.464C77.4966 55.88 76.3988 55.4808 75.2565 55.2854C73.6442 54.9865 72.2021 54.095 71.2141 52.7863C70.226 51.4776 69.7635 49.8465 69.9176 48.214C70.382 43.1934 68.8759 38.1889 65.7175 34.2585C62.5592 30.3282 57.9962 27.7801 52.9933 27.1529C52.2 27.0495 51.4008 26.9983 50.6008 26.9997H50.5537Z" fill="white"/>
<path d="M42.0681 56.9709L49.1396 66.3995C49.3109 66.6091 49.5267 66.778 49.7713 66.8939C50.0159 67.0099 50.2832 67.07 50.5539 67.07C50.8245 67.07 51.0919 67.0099 51.3364 66.8939C51.581 66.778 51.7968 66.6091 51.9681 66.3995L59.0396 56.9709C59.2373 56.7088 59.3576 56.3964 59.3868 56.0694C59.4159 55.7423 59.3528 55.4136 59.2046 55.1206C59.0619 54.8213 58.8384 54.5678 58.5594 54.3887C58.2803 54.2096 57.9568 54.1121 57.6253 54.107H52.3217V41.7674C52.3217 41.2985 52.1355 40.8488 51.8039 40.5173C51.4724 40.1858 51.0227 39.9995 50.5539 39.9995C50.085 39.9995 49.6353 40.1858 49.3038 40.5173C48.9723 40.8488 48.786 41.2985 48.786 41.7674V54.107H43.4824C43.1546 54.1088 42.8337 54.2011 42.555 54.3737C42.2763 54.5463 42.0508 54.7925 41.9031 55.0852C41.7477 55.3825 41.6806 55.718 41.7098 56.0522C41.7391 56.3864 41.8634 56.7052 42.0681 56.9709Z" fill="#62D84E"/>
</g>
<defs>
<clipPath id="clip0_447_269">
<rect width="75.4286" height="75.4286" fill="white" transform="translate(13.4287 12.8569)"/>
</clipPath>
</defs>
</svg>
