<svg width="100" height="100" viewBox="0 0 100 100" fill="none" xmlns="http://www.w3.org/2000/svg">
<rect width="100" height="100" fill="#4E69F6"/>
<g clip-path="url(#clip0_447_270)">
<path d="M36.3023 23.9688C33.2007 24.6242 30.3317 26.1 27.9949 28.2421C25.658 30.3843 23.9388 33.1143 23.0166 36.1473C16.8277 48.1709 17.8241 53.1641 19.3852 56.0759C22.2637 61.357 29.2498 61.1687 29.2498 61.1687C26.9359 68.5755 35.8927 67.0255 37.4316 71.5095C41.6498 83.9095 46.6762 79.7687 46.6762 79.7687C46.6762 79.7687 44.3623 73.5687 46.6762 71.5095C48.9902 69.4502 53.8505 61.1687 46.9198 61.1687C39.9891 61.1687 44.3623 57.0391 37.4316 57.0391C30.5009 57.0391 28.1427 57.0391 23.5591 53.4187C18.9755 49.7984 27.1795 40.5095 27.1795 46.7095C27.1795 52.9095 30.5009 50.8391 30.5009 48.7687C30.5009 46.6984 28.1427 42.5355 35.1177 38.4391C42.0927 34.3427 44.3623 40.5095 46.6762 36.3687C48.9902 32.228 42.0484 32.2391 48.9791 30.1687C55.9098 28.0984 48.9791 23.9688 36.3023 23.9688Z" fill="#62D84E"/>
<path d="M80.1785 45.6686C79.9581 45.2823 79.7102 44.9123 79.4367 44.5615C79.7055 44.6254 79.98 44.6624 80.256 44.6722C80.256 44.6722 74.7203 28.1426 68.5203 28.1426C62.3203 28.1426 62.3203 28.1426 62.3203 32.2722C62.3203 36.4019 59.3642 30.5451 58.7775 34.4865C58.1907 38.4279 58.1796 40.5204 64.3796 38.4501C70.5796 36.3797 72.65 36.3797 74.7203 40.5204C75.1887 41.4816 75.8391 42.3426 76.6357 43.0558C73.8014 43.3215 70.9671 47.5508 68.1439 44.6501C64.1139 40.5204 60.0839 42.5797 56.0539 46.7204C52.0239 50.8611 52.0239 54.9797 62.0989 57.0501C72.1739 59.1204 60.0839 63.2501 64.1139 69.4501C64.1139 69.4501 66.1289 71.5204 63.4385 73.5797C60.7482 75.639 61.8 79.4033 61.8 79.4033L75.4732 67.5126C75.4732 67.5126 84.2528 52.9094 80.1785 45.6686Z" fill="#62D84E"/>
<path d="M49.732 83.4997C43.2723 83.4997 36.9577 81.5841 31.5867 77.9953C26.2157 74.4065 22.0295 69.3056 19.5575 63.3377C17.0854 57.3697 16.4386 50.8027 17.6989 44.4672C18.9591 38.1316 22.0697 32.312 26.6374 27.7443C31.2051 23.1767 37.0247 20.066 43.3602 18.8058C49.6958 17.5456 56.2628 18.1924 62.2307 20.6644C68.1987 23.1364 73.2996 27.3226 76.8884 32.6936C80.4772 38.0647 82.3927 44.3793 82.3927 50.839C82.3839 59.4984 78.9401 67.8007 72.8169 73.9238C66.6937 80.047 58.3915 83.4909 49.732 83.4997ZM49.732 21.4997C43.9293 21.4997 38.2568 23.2204 33.432 26.4442C28.6072 29.6681 24.8467 34.2502 22.6261 39.6113C20.4054 44.9723 19.8244 50.8715 20.9565 56.5628C22.0885 62.254 24.8828 67.4818 28.986 71.585C33.0892 75.6881 38.3169 78.4824 44.0082 79.6145C49.6995 80.7465 55.5986 80.1655 60.9597 77.9449C66.3207 75.7243 70.9029 71.9638 74.1267 67.139C77.3506 62.3142 79.0713 56.6417 79.0713 50.839C79.0625 43.0604 75.9686 35.6029 70.4683 30.1027C64.968 24.6024 57.5106 21.5085 49.732 21.4997Z" fill="white"/>
</g>
<defs>
<clipPath id="clip0_447_270">
<rect width="70.8571" height="70.8571" fill="white" transform="translate(14.8569 14.8569)"/>
</clipPath>
</defs>
</svg>
