<svg width="100" height="100" viewBox="0 0 100 100" fill="none" xmlns="http://www.w3.org/2000/svg">
<rect width="100" height="100" fill="#4E69F6"/>
<g clip-path="url(#clip0_447_273)">
<path d="M49.5781 35.4531C58.3111 35.4531 65.3906 32.7983 65.3906 29.5234C65.3906 26.2486 58.3111 23.5938 49.5781 23.5938C40.8451 23.5938 33.7656 26.2486 33.7656 29.5234C33.7656 32.7983 40.8451 35.4531 49.5781 35.4531Z" fill="#62D84E"/>
<path d="M76.1205 29.8058C76.1205 21.8883 64.4644 15.6875 49.5781 15.6875C34.6917 15.6875 23.0356 21.8883 23.0356 29.8058V72.2172C23.0356 79.265 34.4432 84.6413 49.5781 84.6413C64.7129 84.6413 76.1205 79.265 76.1205 72.2172V29.8058ZM72.7321 58.0424V58.6636C72.7321 62.9104 63.222 67.6993 49.5781 67.6993C35.9341 67.6993 26.424 62.9104 26.424 58.6636V51.3334C30.9419 55.0606 39.3903 57.4777 49.5781 57.4777C59.7658 57.4777 68.2707 55.0606 72.7321 51.3334V58.0424ZM72.7321 45.11C72.7321 49.3568 63.222 54.1458 49.5781 54.1458C35.9341 54.1458 26.424 49.3568 26.424 45.11V36.8085C30.9419 41.0891 39.5145 43.9241 49.5781 43.9241C59.6416 43.9241 68.2142 41.0891 72.7321 36.8085V45.11ZM49.5781 19.0759C62.1264 19.0759 72.7321 23.9891 72.7321 29.8058C72.7321 35.6225 62.1264 40.5357 49.5781 40.5357C37.0297 40.5357 26.424 35.6225 26.424 29.8058C26.424 23.9891 37.0297 19.0759 49.5781 19.0759ZM49.5781 81.1964C35.9341 81.1964 26.424 76.464 26.424 72.1607V64.887C30.9419 68.6142 39.3903 71.0312 49.5781 71.0312C59.7658 71.0312 68.2707 68.6142 72.7321 64.887V72.2172C72.7321 76.464 63.222 81.1964 49.5781 81.1964Z" fill="white"/>
</g>
<defs>
<clipPath id="clip0_447_273">
<rect width="72.2857" height="72.2857" fill="white" transform="translate(14 13.4287)"/>
</clipPath>
</defs>
</svg>
