<svg width="176" height="32" viewBox="0 0 176 32" fill="none" xmlns="http://www.w3.org/2000/svg">
<g clip-path="url(#clip0_1_1076)">
<g clip-path="url(#clip1_1_1076)">
<rect width="176" height="32" rx="4" fill="#4F52BD"/>
<path d="M21 16C21 15.7239 21.2239 15.5 21.5 15.5H26.5C26.7761 15.5 27 15.7239 27 16C27 16.2761 26.7761 16.5 26.5 16.5H21.5C21.2239 16.5 21 16.2761 21 16Z" fill="white"/>
<path d="M21.5 17.5C21.2239 17.5 21 17.7239 21 18C21 18.2761 21.2239 18.5 21.5 18.5H26.5C26.7761 18.5 27 18.2761 27 18C27 17.7239 26.7761 17.5 26.5 17.5H21.5Z" fill="white"/>
<path d="M19.5 8.5C18.6716 8.5 18 9.17157 18 10V21C18 21.8284 18.6716 22.5 19.5 22.5H28.5C29.3284 22.5 30 21.8284 30 21V13.2009C30 12.7877 29.8295 12.3927 29.5287 12.1093L26.1318 8.90832C25.8535 8.64606 25.4855 8.5 25.1031 8.5H19.5ZM19 10C19 9.72386 19.2239 9.5 19.5 9.5H25V12C25 12.8284 25.6716 13.5 26.5 13.5H29V21C29 21.2761 28.7761 21.5 28.5 21.5H19.5C19.2239 21.5 19 21.2761 19 21V10ZM28.4852 12.5H26.5C26.2239 12.5 26 12.2761 26 12V10.1582L28.4852 12.5Z" fill="white"/>
<path d="M45.1678 16.2V20.88C44.5811 21.312 43.9544 21.6293 43.2878 21.832C42.6264 22.0293 41.9171 22.128 41.1598 22.128C40.2158 22.128 39.3598 21.9813 38.5918 21.688C37.8291 21.3947 37.1758 20.9867 36.6318 20.464C36.0931 19.9413 35.6771 19.3173 35.3838 18.592C35.0904 17.8667 34.9438 17.0747 34.9438 16.216C34.9438 15.3467 35.0851 14.5493 35.3678 13.824C35.6504 13.0987 36.0504 12.4747 36.5678 11.952C37.0904 11.4293 37.7224 11.024 38.4638 10.736C39.2051 10.448 40.0371 10.304 40.9598 10.304C41.4291 10.304 41.8664 10.3413 42.2718 10.416C42.6824 10.4907 43.0611 10.5947 43.4078 10.728C43.7598 10.856 44.0798 11.0133 44.3678 11.2C44.6558 11.3867 44.9198 11.592 45.1598 11.816L44.5438 12.792C44.4478 12.9467 44.3224 13.0427 44.1678 13.08C44.0131 13.112 43.8451 13.072 43.6638 12.96C43.4878 12.8587 43.3118 12.7573 43.1358 12.656C42.9598 12.5547 42.7624 12.4667 42.5438 12.392C42.3304 12.3173 42.0878 12.256 41.8158 12.208C41.5491 12.16 41.2398 12.136 40.8878 12.136C40.3171 12.136 39.7998 12.232 39.3358 12.424C38.8771 12.616 38.4851 12.8907 38.1598 13.248C37.8344 13.6053 37.5838 14.0347 37.4078 14.536C37.2318 15.0373 37.1438 15.5973 37.1438 16.216C37.1438 16.8773 37.2371 17.4693 37.4238 17.992C37.6158 18.5093 37.8824 18.9493 38.2238 19.312C38.5704 19.6693 38.9864 19.944 39.4718 20.136C39.9571 20.3227 40.4984 20.416 41.0958 20.416C41.5224 20.416 41.9038 20.3707 42.2398 20.28C42.5758 20.1893 42.9038 20.0667 43.2238 19.912V17.816H41.7678C41.6291 17.816 41.5198 17.7787 41.4398 17.704C41.3651 17.624 41.3278 17.528 41.3278 17.416V16.2H45.1678ZM53.8761 13.792V22H52.6681C52.4068 22 52.2415 21.88 52.1721 21.64L52.0361 20.984C51.7001 21.3253 51.3295 21.6027 50.9241 21.816C50.5188 22.024 50.0415 22.128 49.4921 22.128C49.0441 22.128 48.6468 22.0533 48.3001 21.904C47.9588 21.7493 47.6708 21.5333 47.4361 21.256C47.2015 20.9787 47.0228 20.6507 46.9001 20.272C46.7828 19.888 46.7241 19.4667 46.7241 19.008V13.792H48.7001V19.008C48.7001 19.5093 48.8148 19.8987 49.0441 20.176C49.2788 20.448 49.6281 20.584 50.0921 20.584C50.4335 20.584 50.7535 20.5093 51.0521 20.36C51.3508 20.2053 51.6335 19.9947 51.9001 19.728V13.792H53.8761ZM57.8834 13.792V22H55.8994V13.792H57.8834ZM58.1554 11.4C58.1554 11.5707 58.1207 11.7307 58.0514 11.88C57.982 12.0293 57.8887 12.16 57.7714 12.272C57.6594 12.384 57.526 12.4747 57.3714 12.544C57.2167 12.608 57.0514 12.64 56.8754 12.64C56.7047 12.64 56.542 12.608 56.3874 12.544C56.238 12.4747 56.1074 12.384 55.9954 12.272C55.8834 12.16 55.7927 12.0293 55.7234 11.88C55.6594 11.7307 55.6274 11.5707 55.6274 11.4C55.6274 11.224 55.6594 11.0587 55.7234 10.904C55.7927 10.7493 55.8834 10.616 55.9954 10.504C56.1074 10.392 56.238 10.304 56.3874 10.24C56.542 10.1707 56.7047 10.136 56.8754 10.136C57.0514 10.136 57.2167 10.1707 57.3714 10.24C57.526 10.304 57.6594 10.392 57.7714 10.504C57.8887 10.616 57.982 10.7493 58.0514 10.904C58.1207 11.0587 58.1554 11.224 58.1554 11.4ZM65.0499 15.888C64.8259 15.616 64.5805 15.424 64.3139 15.312C64.0525 15.2 63.7699 15.144 63.4659 15.144C63.1672 15.144 62.8979 15.2 62.6579 15.312C62.4179 15.424 62.2125 15.5947 62.0419 15.824C61.8712 16.048 61.7405 16.336 61.6499 16.688C61.5592 17.0347 61.5139 17.4453 61.5139 17.92C61.5139 18.4 61.5512 18.808 61.6259 19.144C61.7059 19.4747 61.8179 19.7467 61.9619 19.96C62.1059 20.168 62.2819 20.32 62.4899 20.416C62.6979 20.5067 62.9299 20.552 63.1859 20.552C63.5965 20.552 63.9459 20.4667 64.2339 20.296C64.5219 20.1253 64.7939 19.8827 65.0499 19.568V15.888ZM67.0259 10.112V22H65.8179C65.5565 22 65.3912 21.88 65.3219 21.64L65.1539 20.848C64.8232 21.2267 64.4419 21.5333 64.0099 21.768C63.5832 22.0027 63.0845 22.12 62.5139 22.12C62.0659 22.12 61.6552 22.0267 61.2819 21.84C60.9085 21.6533 60.5859 21.384 60.3139 21.032C60.0472 20.6747 59.8392 20.2347 59.6899 19.712C59.5459 19.1893 59.4739 18.592 59.4739 17.92C59.4739 17.312 59.5565 16.7467 59.7219 16.224C59.8872 15.7013 60.1245 15.248 60.4339 14.864C60.7432 14.48 61.1139 14.1813 61.5459 13.968C61.9779 13.7493 62.4632 13.64 63.0019 13.64C63.4605 13.64 63.8525 13.712 64.1779 13.856C64.5032 14 64.7939 14.1947 65.0499 14.44V10.112H67.0259ZM74.264 16.952C74.264 16.696 74.2267 16.456 74.152 16.232C74.0827 16.0027 73.976 15.8027 73.832 15.632C73.688 15.4613 73.504 15.328 73.28 15.232C73.0613 15.1307 72.8053 15.08 72.512 15.08C71.9413 15.08 71.4907 15.2427 71.16 15.568C70.8347 15.8933 70.6267 16.3547 70.536 16.952H74.264ZM70.496 18.144C70.528 18.5653 70.6027 18.9307 70.72 19.24C70.8373 19.544 70.992 19.7973 71.184 20C71.376 20.1973 71.6027 20.3467 71.864 20.448C72.1307 20.544 72.424 20.592 72.744 20.592C73.064 20.592 73.3387 20.5547 73.568 20.48C73.8027 20.4053 74.0053 20.3227 74.176 20.232C74.352 20.1413 74.504 20.0587 74.632 19.984C74.7653 19.9093 74.8933 19.872 75.016 19.872C75.1813 19.872 75.304 19.9333 75.384 20.056L75.952 20.776C75.7333 21.032 75.488 21.248 75.216 21.424C74.944 21.5947 74.6587 21.7333 74.36 21.84C74.0667 21.9413 73.7653 22.0133 73.456 22.056C73.152 22.0987 72.856 22.12 72.568 22.12C71.9973 22.12 71.4667 22.0267 70.976 21.84C70.4853 21.648 70.0587 21.368 69.696 21C69.3333 20.6267 69.048 20.168 68.84 19.624C68.632 19.0747 68.528 18.44 68.528 17.72C68.528 17.16 68.6187 16.6347 68.8 16.144C68.9813 15.648 69.24 15.2187 69.576 14.856C69.9173 14.488 70.3307 14.1973 70.816 13.984C71.3067 13.7707 71.8587 13.664 72.472 13.664C72.9893 13.664 73.4667 13.7467 73.904 13.912C74.3413 14.0773 74.7173 14.32 75.032 14.64C75.3467 14.9547 75.592 15.344 75.768 15.808C75.9493 16.2667 76.04 16.792 76.04 17.384C76.04 17.6827 76.008 17.8853 75.944 17.992C75.88 18.0933 75.7573 18.144 75.576 18.144H70.496ZM79.4989 19.872C79.7229 20.144 79.9655 20.336 80.2269 20.448C80.4935 20.56 80.7735 20.616 81.0669 20.616C81.3709 20.616 81.6429 20.5627 81.8829 20.456C82.1282 20.344 82.3362 20.1733 82.5069 19.944C82.6775 19.7093 82.8082 19.4133 82.8989 19.056C82.9895 18.6933 83.0349 18.2613 83.0349 17.76C83.0349 16.8587 82.8855 16.208 82.5869 15.808C82.2882 15.4027 81.8589 15.2 81.2989 15.2C80.9202 15.2 80.5895 15.288 80.3069 15.464C80.0242 15.6347 79.7549 15.8773 79.4989 16.192V19.872ZM79.4989 14.8C79.8295 14.4533 80.1949 14.1787 80.5949 13.976C81.0002 13.768 81.4615 13.664 81.9789 13.664C82.4535 13.664 82.8802 13.7573 83.2589 13.944C83.6429 14.1307 83.9682 14.4 84.2349 14.752C84.5069 15.0987 84.7149 15.52 84.8589 16.016C85.0029 16.512 85.0749 17.0693 85.0749 17.688C85.0749 18.3547 84.9922 18.96 84.8269 19.504C84.6615 20.048 84.4242 20.5147 84.1149 20.904C83.8109 21.288 83.4429 21.5867 83.0109 21.8C82.5789 22.0133 82.0989 22.12 81.5709 22.12C81.3149 22.12 81.0829 22.0933 80.8749 22.04C80.6669 21.992 80.4749 21.9227 80.2989 21.832C80.1229 21.7413 79.9602 21.632 79.8109 21.504C79.6669 21.3707 79.5282 21.224 79.3949 21.064L79.3069 21.616C79.2749 21.7547 79.2189 21.8533 79.1389 21.912C79.0642 21.9707 78.9602 22 78.8269 22H77.5229V10.112H79.4989V14.8ZM90.233 13.664C90.841 13.664 91.393 13.7627 91.889 13.96C92.3903 14.1573 92.817 14.4373 93.169 14.8C93.5263 15.1627 93.801 15.6053 93.993 16.128C94.185 16.6507 94.281 17.2347 94.281 17.88C94.281 18.5307 94.185 19.1173 93.993 19.64C93.801 20.1627 93.5263 20.608 93.169 20.976C92.817 21.344 92.3903 21.6267 91.889 21.824C91.393 22.0213 90.841 22.12 90.233 22.12C89.6197 22.12 89.0623 22.0213 88.561 21.824C88.0597 21.6267 87.6303 21.344 87.273 20.976C86.921 20.608 86.6463 20.1627 86.449 19.64C86.257 19.1173 86.161 18.5307 86.161 17.88C86.161 17.2347 86.257 16.6507 86.449 16.128C86.6463 15.6053 86.921 15.1627 87.273 14.8C87.6303 14.4373 88.0597 14.1573 88.561 13.96C89.0623 13.7627 89.6197 13.664 90.233 13.664ZM90.233 20.6C90.9157 20.6 91.4197 20.3707 91.745 19.912C92.0757 19.4533 92.241 18.7813 92.241 17.896C92.241 17.0107 92.0757 16.336 91.745 15.872C91.4197 15.408 90.9157 15.176 90.233 15.176C89.5397 15.176 89.025 15.4107 88.689 15.88C88.3583 16.344 88.193 17.016 88.193 17.896C88.193 18.776 88.3583 19.448 88.689 19.912C89.025 20.3707 89.5397 20.6 90.233 20.6ZM99.4205 13.664C100.029 13.664 100.581 13.7627 101.077 13.96C101.578 14.1573 102.005 14.4373 102.357 14.8C102.714 15.1627 102.988 15.6053 103.181 16.128C103.373 16.6507 103.469 17.2347 103.469 17.88C103.469 18.5307 103.373 19.1173 103.181 19.64C102.988 20.1627 102.714 20.608 102.357 20.976C102.005 21.344 101.578 21.6267 101.077 21.824C100.581 22.0213 100.029 22.12 99.4205 22.12C98.8072 22.12 98.2498 22.0213 97.7485 21.824C97.2472 21.6267 96.8178 21.344 96.4605 20.976C96.1085 20.608 95.8338 20.1627 95.6365 19.64C95.4445 19.1173 95.3485 18.5307 95.3485 17.88C95.3485 17.2347 95.4445 16.6507 95.6365 16.128C95.8338 15.6053 96.1085 15.1627 96.4605 14.8C96.8178 14.4373 97.2472 14.1573 97.7485 13.96C98.2498 13.7627 98.8072 13.664 99.4205 13.664ZM99.4205 20.6C100.103 20.6 100.607 20.3707 100.933 19.912C101.263 19.4533 101.429 18.7813 101.429 17.896C101.429 17.0107 101.263 16.336 100.933 15.872C100.607 15.408 100.103 15.176 99.4205 15.176C98.7272 15.176 98.2125 15.4107 97.8765 15.88C97.5458 16.344 97.3805 17.016 97.3805 17.896C97.3805 18.776 97.5458 19.448 97.8765 19.912C98.2125 20.3707 98.7272 20.6 99.4205 20.6ZM106.952 10.112V16.92H107.32C107.453 16.92 107.557 16.904 107.632 16.872C107.712 16.8347 107.792 16.7627 107.872 16.656L109.912 14.136C109.997 14.024 110.091 13.9387 110.192 13.88C110.299 13.8213 110.435 13.792 110.6 13.792H112.408L109.856 16.84C109.675 17.08 109.477 17.264 109.264 17.392C109.376 17.472 109.475 17.5653 109.56 17.672C109.651 17.7787 109.736 17.8933 109.816 18.016L112.552 22H110.768C110.613 22 110.48 21.976 110.368 21.928C110.256 21.8747 110.163 21.7813 110.088 21.648L107.992 18.536C107.917 18.4133 107.84 18.3333 107.76 18.296C107.68 18.2587 107.56 18.24 107.4 18.24H106.952V22H104.976V10.112H106.952ZM127.478 10.432V22H125.318V16.944H119.886V22H117.726V10.432H119.886V15.408H125.318V10.432H127.478ZM133.124 13.664C133.732 13.664 134.284 13.7627 134.78 13.96C135.281 14.1573 135.708 14.4373 136.06 14.8C136.417 15.1627 136.692 15.6053 136.884 16.128C137.076 16.6507 137.172 17.2347 137.172 17.88C137.172 18.5307 137.076 19.1173 136.884 19.64C136.692 20.1627 136.417 20.608 136.06 20.976C135.708 21.344 135.281 21.6267 134.78 21.824C134.284 22.0213 133.732 22.12 133.124 22.12C132.51 22.12 131.953 22.0213 131.452 21.824C130.95 21.6267 130.521 21.344 130.164 20.976C129.812 20.608 129.537 20.1627 129.34 19.64C129.148 19.1173 129.052 18.5307 129.052 17.88C129.052 17.2347 129.148 16.6507 129.34 16.128C129.537 15.6053 129.812 15.1627 130.164 14.8C130.521 14.4373 130.95 14.1573 131.452 13.96C131.953 13.7627 132.51 13.664 133.124 13.664ZM133.124 20.6C133.806 20.6 134.31 20.3707 134.636 19.912C134.966 19.4533 135.132 18.7813 135.132 17.896C135.132 17.0107 134.966 16.336 134.636 15.872C134.31 15.408 133.806 15.176 133.124 15.176C132.43 15.176 131.916 15.4107 131.58 15.88C131.249 16.344 131.084 17.016 131.084 17.896C131.084 18.776 131.249 19.448 131.58 19.912C131.916 20.3707 132.43 20.6 133.124 20.6ZM138.679 22V13.792H139.887C140.143 13.792 140.311 13.912 140.391 14.152L140.519 14.76C140.663 14.6 140.812 14.4533 140.967 14.32C141.127 14.1867 141.295 14.072 141.471 13.976C141.652 13.88 141.844 13.8053 142.047 13.752C142.255 13.6933 142.482 13.664 142.727 13.664C143.244 13.664 143.668 13.8053 143.999 14.088C144.335 14.3653 144.586 14.736 144.751 15.2C144.879 14.928 145.039 14.696 145.231 14.504C145.423 14.3067 145.634 14.1467 145.863 14.024C146.092 13.9013 146.335 13.8107 146.591 13.752C146.852 13.6933 147.114 13.664 147.375 13.664C147.828 13.664 148.231 13.7333 148.583 13.872C148.935 14.0107 149.231 14.2133 149.471 14.48C149.711 14.7467 149.892 15.072 150.015 15.456C150.143 15.84 150.207 16.28 150.207 16.776V22H148.231V16.776C148.231 16.2533 148.116 15.8613 147.887 15.6C147.658 15.3333 147.322 15.2 146.879 15.2C146.676 15.2 146.487 15.2347 146.311 15.304C146.14 15.3733 145.988 15.4747 145.855 15.608C145.727 15.736 145.626 15.8987 145.551 16.096C145.476 16.2933 145.439 16.52 145.439 16.776V22H143.455V16.776C143.455 16.2267 143.343 15.8267 143.119 15.576C142.9 15.3253 142.578 15.2 142.151 15.2C141.863 15.2 141.594 15.272 141.343 15.416C141.098 15.5547 140.868 15.7467 140.655 15.992V22H138.679ZM157.373 16.952C157.373 16.696 157.336 16.456 157.261 16.232C157.192 16.0027 157.085 15.8027 156.941 15.632C156.797 15.4613 156.613 15.328 156.389 15.232C156.171 15.1307 155.915 15.08 155.621 15.08C155.051 15.08 154.6 15.2427 154.269 15.568C153.944 15.8933 153.736 16.3547 153.645 16.952H157.373ZM153.605 18.144C153.637 18.5653 153.712 18.9307 153.829 19.24C153.947 19.544 154.101 19.7973 154.293 20C154.485 20.1973 154.712 20.3467 154.973 20.448C155.24 20.544 155.533 20.592 155.853 20.592C156.173 20.592 156.448 20.5547 156.677 20.48C156.912 20.4053 157.115 20.3227 157.285 20.232C157.461 20.1413 157.613 20.0587 157.741 19.984C157.875 19.9093 158.003 19.872 158.125 19.872C158.291 19.872 158.413 19.9333 158.493 20.056L159.061 20.776C158.843 21.032 158.597 21.248 158.325 21.424C158.053 21.5947 157.768 21.7333 157.469 21.84C157.176 21.9413 156.875 22.0133 156.565 22.056C156.261 22.0987 155.965 22.12 155.677 22.12C155.107 22.12 154.576 22.0267 154.085 21.84C153.595 21.648 153.168 21.368 152.805 21C152.443 20.6267 152.157 20.168 151.949 19.624C151.741 19.0747 151.637 18.44 151.637 17.72C151.637 17.16 151.728 16.6347 151.909 16.144C152.091 15.648 152.349 15.2187 152.685 14.856C153.027 14.488 153.44 14.1973 153.925 13.984C154.416 13.7707 154.968 13.664 155.581 13.664C156.099 13.664 156.576 13.7467 157.013 13.912C157.451 14.0773 157.827 14.32 158.141 14.64C158.456 14.9547 158.701 15.344 158.877 15.808C159.059 16.2667 159.149 16.792 159.149 17.384C159.149 17.6827 159.117 17.8853 159.053 17.992C158.989 18.0933 158.867 18.144 158.685 18.144H153.605Z" fill="white"/>
</g>
</g>
<defs>
<clipPath id="clip0_1_1076">
<rect width="176" height="32" rx="4" fill="white"/>
</clipPath>
<clipPath id="clip1_1_1076">
<rect width="176" height="32" rx="4" fill="white"/>
</clipPath>
</defs>
</svg>
