<svg width="215" height="48" viewBox="0 0 215 48" fill="none" xmlns="http://www.w3.org/2000/svg">
<g clip-path="url(#clip0_1_1075)">
<g clip-path="url(#clip1_1_1075)">
<rect width="215" height="48" rx="4" fill="#4F52BD"/>
<path d="M31 23.5C31 22.9477 31.4477 22.5 32 22.5H40C40.5523 22.5 41 22.9477 41 23.5C41 24.0523 40.5523 24.5 40 24.5H32C31.4477 24.5 31 24.0523 31 23.5Z" fill="white"/>
<path d="M32 26.5C31.4477 26.5 31 26.9477 31 27.5C31 28.0523 31.4477 28.5 32 28.5H40C40.5523 28.5 41 28.0523 41 27.5C41 26.9477 40.5523 26.5 40 26.5H32Z" fill="white"/>
<path d="M30 13.5C28.3431 13.5 27 14.8431 27 16.5V30.5C27 32.1569 28.3431 33.5 30 33.5H42C43.6569 33.5 45 32.1569 45 30.5V19.7498C45 18.9217 44.6577 18.1304 44.0542 17.5634L40.5954 14.3136C40.0391 13.791 39.3045 13.5 38.5412 13.5H30ZM29 16.5C29 15.9477 29.4477 15.5 30 15.5H38V17.5C38 19.1569 39.3431 20.5 41 20.5H43V30.5C43 31.0523 42.5523 31.5 42 31.5H30C29.4477 31.5 29 31.0523 29 30.5V16.5ZM42.1302 18.5H41C40.4477 18.5 40 18.0523 40 17.5V16.4985L42.1302 18.5Z" fill="white"/>
<path d="M68.8842 15.648V33H67.2282C66.9722 33 66.7562 32.96 66.5802 32.88C66.4122 32.792 66.2482 32.648 66.0882 32.448L57.0282 20.88C57.0762 21.408 57.1002 21.896 57.1002 22.344V33H54.2562V15.648H55.9482C56.0842 15.648 56.2002 15.656 56.2962 15.672C56.4002 15.68 56.4882 15.704 56.5602 15.744C56.6402 15.776 56.7162 15.828 56.7882 15.9C56.8602 15.964 56.9402 16.052 57.0282 16.164L66.1242 27.78C66.1002 27.5 66.0802 27.224 66.0642 26.952C66.0482 26.68 66.0402 26.428 66.0402 26.196V15.648H68.8842ZM79.8374 25.428C79.8374 25.044 79.7814 24.684 79.6694 24.348C79.5654 24.004 79.4054 23.704 79.1894 23.448C78.9734 23.192 78.6974 22.992 78.3614 22.848C78.0334 22.696 77.6494 22.62 77.2094 22.62C76.3534 22.62 75.6774 22.864 75.1814 23.352C74.6934 23.84 74.3814 24.532 74.2454 25.428H79.8374ZM74.1854 27.216C74.2334 27.848 74.3454 28.396 74.5214 28.86C74.6974 29.316 74.9294 29.696 75.2174 30C75.5054 30.296 75.8454 30.52 76.2374 30.672C76.6374 30.816 77.0774 30.888 77.5574 30.888C78.0374 30.888 78.4494 30.832 78.7934 30.72C79.1454 30.608 79.4494 30.484 79.7054 30.348C79.9694 30.212 80.1974 30.088 80.3894 29.976C80.5894 29.864 80.7814 29.808 80.9654 29.808C81.2134 29.808 81.3974 29.9 81.5174 30.084L82.3694 31.164C82.0414 31.548 81.6734 31.872 81.2654 32.136C80.8574 32.392 80.4294 32.6 79.9814 32.76C79.5414 32.912 79.0894 33.02 78.6254 33.084C78.1694 33.148 77.7254 33.18 77.2934 33.18C76.4374 33.18 75.6414 33.04 74.9054 32.76C74.1694 32.472 73.5294 32.052 72.9854 31.5C72.4414 30.94 72.0134 30.252 71.7014 29.436C71.3894 28.612 71.2334 27.66 71.2334 26.58C71.2334 25.74 71.3694 24.952 71.6414 24.216C71.9134 23.472 72.3014 22.828 72.8054 22.284C73.3174 21.732 73.9374 21.296 74.6654 20.976C75.4014 20.656 76.2294 20.496 77.1494 20.496C77.9254 20.496 78.6414 20.62 79.2974 20.868C79.9534 21.116 80.5174 21.48 80.9894 21.96C81.4614 22.432 81.8294 23.016 82.0934 23.712C82.3654 24.4 82.5014 25.188 82.5014 26.076C82.5014 26.524 82.4534 26.828 82.3574 26.988C82.2614 27.14 82.0774 27.216 81.8054 27.216H74.1854ZM95.5302 33H92.6742C92.4582 33 92.2822 32.944 92.1462 32.832C92.0182 32.72 91.9102 32.592 91.8222 32.448L89.2182 28.164C89.1782 28.3 89.1302 28.428 89.0742 28.548C89.0262 28.668 88.9702 28.78 88.9062 28.884L86.6022 32.448C86.5142 32.584 86.4062 32.712 86.2782 32.832C86.1502 32.944 85.9902 33 85.7982 33H83.1462L87.3702 26.652L83.3142 20.688H86.1702C86.3862 20.688 86.5462 20.72 86.6502 20.784C86.7542 20.84 86.8462 20.936 86.9262 21.072L89.5062 25.176C89.5942 24.904 89.7182 24.636 89.8782 24.372L91.9542 21.132C92.1302 20.836 92.3582 20.688 92.6382 20.688H95.3622L91.3182 26.52L95.5302 33ZM101.181 33.192C100.109 33.192 99.2853 32.892 98.7093 32.292C98.1413 31.684 97.8573 30.848 97.8573 29.784V22.908H96.5973C96.4373 22.908 96.3013 22.856 96.1893 22.752C96.0773 22.648 96.0213 22.492 96.0213 22.284V21.108L98.0013 20.784L98.6253 17.424C98.6653 17.264 98.7413 17.14 98.8533 17.052C98.9653 16.964 99.1093 16.92 99.2853 16.92H100.821V20.796H104.109V22.908H100.821V29.58C100.821 29.964 100.913 30.264 101.097 30.48C101.289 30.696 101.549 30.804 101.877 30.804C102.061 30.804 102.213 30.784 102.333 30.744C102.461 30.696 102.569 30.648 102.657 30.6C102.753 30.552 102.837 30.508 102.909 30.468C102.981 30.42 103.053 30.396 103.125 30.396C103.213 30.396 103.285 30.42 103.341 30.468C103.397 30.508 103.457 30.572 103.521 30.66L104.409 32.1C103.977 32.46 103.481 32.732 102.921 32.916C102.361 33.1 101.781 33.192 101.181 33.192ZM121.551 18.804C121.455 18.972 121.351 19.096 121.239 19.176C121.135 19.248 121.003 19.284 120.843 19.284C120.675 19.284 120.491 19.224 120.291 19.104C120.099 18.976 119.867 18.836 119.595 18.684C119.323 18.532 119.003 18.396 118.635 18.276C118.275 18.148 117.847 18.084 117.351 18.084C116.903 18.084 116.511 18.14 116.175 18.252C115.839 18.356 115.555 18.504 115.323 18.696C115.099 18.888 114.931 19.12 114.819 19.392C114.707 19.656 114.651 19.948 114.651 20.268C114.651 20.676 114.763 21.016 114.987 21.288C115.219 21.56 115.523 21.792 115.899 21.984C116.275 22.176 116.703 22.348 117.183 22.5C117.663 22.652 118.155 22.816 118.659 22.992C119.163 23.16 119.655 23.36 120.135 23.592C120.615 23.816 121.043 24.104 121.419 24.456C121.795 24.8 122.095 25.224 122.319 25.728C122.551 26.232 122.667 26.844 122.667 27.564C122.667 28.348 122.531 29.084 122.259 29.772C121.995 30.452 121.603 31.048 121.083 31.56C120.571 32.064 119.943 32.464 119.199 32.76C118.455 33.048 117.603 33.192 116.643 33.192C116.091 33.192 115.547 33.136 115.011 33.024C114.475 32.92 113.959 32.768 113.463 32.568C112.975 32.368 112.515 32.128 112.083 31.848C111.651 31.568 111.267 31.256 110.931 30.912L111.879 29.364C111.959 29.252 112.063 29.16 112.191 29.088C112.319 29.008 112.455 28.968 112.599 28.968C112.799 28.968 113.015 29.052 113.247 29.22C113.479 29.38 113.755 29.56 114.075 29.76C114.395 29.96 114.767 30.144 115.191 30.312C115.623 30.472 116.139 30.552 116.739 30.552C117.659 30.552 118.371 30.336 118.875 29.904C119.379 29.464 119.631 28.836 119.631 28.02C119.631 27.564 119.515 27.192 119.283 26.904C119.059 26.616 118.759 26.376 118.383 26.184C118.007 25.984 117.579 25.816 117.099 25.68C116.619 25.544 116.131 25.396 115.635 25.236C115.139 25.076 114.651 24.884 114.171 24.66C113.691 24.436 113.263 24.144 112.887 23.784C112.511 23.424 112.207 22.976 111.975 22.44C111.751 21.896 111.639 21.228 111.639 20.436C111.639 19.804 111.763 19.188 112.011 18.588C112.267 17.988 112.635 17.456 113.115 16.992C113.595 16.528 114.187 16.156 114.891 15.876C115.595 15.596 116.403 15.456 117.315 15.456C118.339 15.456 119.283 15.616 120.147 15.936C121.011 16.256 121.747 16.704 122.355 17.28L121.551 18.804ZM132.9 25.428C132.9 25.044 132.844 24.684 132.732 24.348C132.628 24.004 132.468 23.704 132.252 23.448C132.036 23.192 131.76 22.992 131.424 22.848C131.096 22.696 130.712 22.62 130.272 22.62C129.416 22.62 128.74 22.864 128.244 23.352C127.756 23.84 127.444 24.532 127.308 25.428H132.9ZM127.248 27.216C127.296 27.848 127.408 28.396 127.584 28.86C127.76 29.316 127.992 29.696 128.28 30C128.568 30.296 128.908 30.52 129.3 30.672C129.7 30.816 130.14 30.888 130.62 30.888C131.1 30.888 131.512 30.832 131.856 30.72C132.208 30.608 132.512 30.484 132.768 30.348C133.032 30.212 133.26 30.088 133.452 29.976C133.652 29.864 133.844 29.808 134.028 29.808C134.276 29.808 134.46 29.9 134.58 30.084L135.432 31.164C135.104 31.548 134.736 31.872 134.328 32.136C133.92 32.392 133.492 32.6 133.044 32.76C132.604 32.912 132.152 33.02 131.688 33.084C131.232 33.148 130.788 33.18 130.356 33.18C129.5 33.18 128.704 33.04 127.968 32.76C127.232 32.472 126.592 32.052 126.048 31.5C125.504 30.94 125.076 30.252 124.764 29.436C124.452 28.612 124.296 27.66 124.296 26.58C124.296 25.74 124.432 24.952 124.704 24.216C124.976 23.472 125.364 22.828 125.868 22.284C126.38 21.732 127 21.296 127.728 20.976C128.464 20.656 129.292 20.496 130.212 20.496C130.988 20.496 131.704 20.62 132.36 20.868C133.016 21.116 133.58 21.48 134.052 21.96C134.524 22.432 134.892 23.016 135.156 23.712C135.428 24.4 135.564 25.188 135.564 26.076C135.564 26.524 135.516 26.828 135.42 26.988C135.324 27.14 135.14 27.216 134.868 27.216H127.248ZM146.608 23.292C146.52 23.404 146.432 23.492 146.344 23.556C146.264 23.62 146.144 23.652 145.984 23.652C145.832 23.652 145.684 23.608 145.54 23.52C145.396 23.424 145.224 23.32 145.024 23.208C144.824 23.088 144.584 22.984 144.304 22.896C144.032 22.8 143.692 22.752 143.284 22.752C142.764 22.752 142.308 22.848 141.916 23.04C141.524 23.224 141.196 23.492 140.932 23.844C140.676 24.196 140.484 24.624 140.356 25.128C140.228 25.624 140.164 26.188 140.164 26.82C140.164 27.476 140.232 28.06 140.368 28.572C140.512 29.084 140.716 29.516 140.98 29.868C141.244 30.212 141.564 30.476 141.94 30.66C142.316 30.836 142.74 30.924 143.212 30.924C143.684 30.924 144.064 30.868 144.352 30.756C144.648 30.636 144.896 30.508 145.096 30.372C145.296 30.228 145.468 30.1 145.612 29.988C145.764 29.868 145.932 29.808 146.116 29.808C146.356 29.808 146.536 29.9 146.656 30.084L147.508 31.164C147.18 31.548 146.824 31.872 146.44 32.136C146.056 32.392 145.656 32.6 145.24 32.76C144.832 32.912 144.408 33.02 143.968 33.084C143.536 33.148 143.104 33.18 142.672 33.18C141.912 33.18 141.196 33.04 140.524 32.76C139.852 32.472 139.264 32.056 138.76 31.512C138.256 30.968 137.856 30.304 137.56 29.52C137.272 28.728 137.128 27.828 137.128 26.82C137.128 25.916 137.256 25.08 137.512 24.312C137.776 23.536 138.16 22.868 138.664 22.308C139.168 21.74 139.792 21.296 140.536 20.976C141.28 20.656 142.136 20.496 143.104 20.496C144.024 20.496 144.828 20.644 145.516 20.94C146.212 21.236 146.836 21.66 147.388 22.212L146.608 23.292ZM161.786 33H158.822V22.908H153.11V29.58C153.11 29.964 153.202 30.264 153.386 30.48C153.578 30.696 153.838 30.804 154.166 30.804C154.35 30.804 154.502 30.784 154.622 30.744C154.75 30.696 154.858 30.648 154.946 30.6C155.042 30.552 155.126 30.508 155.198 30.468C155.27 30.42 155.342 30.396 155.414 30.396C155.502 30.396 155.574 30.42 155.63 30.468C155.686 30.508 155.746 30.572 155.81 30.66L156.698 32.1C156.266 32.46 155.77 32.732 155.21 32.916C154.65 33.1 154.07 33.192 153.47 33.192C152.398 33.192 151.574 32.892 150.998 32.292C150.43 31.684 150.146 30.848 150.146 29.784V22.908H148.886C148.726 22.908 148.59 22.856 148.478 22.752C148.366 22.648 148.31 22.492 148.31 22.284V21.108L150.29 20.772L150.914 17.424C150.954 17.264 151.03 17.14 151.142 17.052C151.254 16.964 151.398 16.92 151.574 16.92H153.11V20.796H161.786V33ZM162.302 17.052C162.302 17.308 162.25 17.552 162.146 17.784C162.042 18.008 161.902 18.204 161.726 18.372C161.558 18.54 161.354 18.676 161.114 18.78C160.882 18.876 160.634 18.924 160.37 18.924C160.114 18.924 159.874 18.876 159.65 18.78C159.426 18.676 159.23 18.54 159.062 18.372C158.894 18.204 158.758 18.008 158.654 17.784C158.558 17.552 158.51 17.308 158.51 17.052C158.51 16.788 158.558 16.544 158.654 16.32C158.758 16.088 158.894 15.888 159.062 15.72C159.23 15.544 159.426 15.408 159.65 15.312C159.874 15.208 160.114 15.156 160.37 15.156C160.634 15.156 160.882 15.208 161.114 15.312C161.354 15.408 161.558 15.544 161.726 15.72C161.902 15.888 162.042 16.088 162.146 16.32C162.25 16.544 162.302 16.788 162.302 17.052ZM170.26 20.496C171.172 20.496 172 20.644 172.744 20.94C173.496 21.236 174.136 21.656 174.664 22.2C175.2 22.744 175.612 23.408 175.9 24.192C176.188 24.976 176.332 25.852 176.332 26.82C176.332 27.796 176.188 28.676 175.9 29.46C175.612 30.244 175.2 30.912 174.664 31.464C174.136 32.016 173.496 32.44 172.744 32.736C172 33.032 171.172 33.18 170.26 33.18C169.34 33.18 168.504 33.032 167.752 32.736C167 32.44 166.356 32.016 165.82 31.464C165.292 30.912 164.88 30.244 164.584 29.46C164.296 28.676 164.152 27.796 164.152 26.82C164.152 25.852 164.296 24.976 164.584 24.192C164.88 23.408 165.292 22.744 165.82 22.2C166.356 21.656 167 21.236 167.752 20.94C168.504 20.644 169.34 20.496 170.26 20.496ZM170.26 30.9C171.284 30.9 172.04 30.556 172.528 29.868C173.024 29.18 173.272 28.172 173.272 26.844C173.272 25.516 173.024 24.504 172.528 23.808C172.04 23.112 171.284 22.764 170.26 22.764C169.22 22.764 168.448 23.116 167.944 23.82C167.448 24.516 167.2 25.524 167.2 26.844C167.2 28.164 167.448 29.172 167.944 29.868C168.448 30.556 169.22 30.9 170.26 30.9ZM181.365 22.2C181.613 21.952 181.873 21.724 182.145 21.516C182.425 21.3 182.717 21.12 183.021 20.976C183.333 20.824 183.665 20.708 184.017 20.628C184.369 20.54 184.753 20.496 185.169 20.496C185.841 20.496 186.437 20.612 186.957 20.844C187.477 21.068 187.909 21.388 188.253 21.804C188.605 22.212 188.869 22.704 189.045 23.28C189.229 23.848 189.321 24.476 189.321 25.164V33H186.357V25.164C186.357 24.412 186.185 23.832 185.841 23.424C185.497 23.008 184.973 22.8 184.269 22.8C183.757 22.8 183.277 22.916 182.829 23.148C182.381 23.38 181.957 23.696 181.557 24.096V33H178.593V20.688H180.405C180.789 20.688 181.041 20.868 181.161 21.228L181.365 22.2Z" fill="white"/>
</g>
</g>
<defs>
<clipPath id="clip0_1_1075">
<rect width="215" height="48" rx="4" fill="white"/>
</clipPath>
<clipPath id="clip1_1_1075">
<rect width="215" height="48" rx="4" fill="white"/>
</clipPath>
</defs>
</svg>
