<svg width="294" height="48" viewBox="0 0 294 48" fill="none" xmlns="http://www.w3.org/2000/svg">
<g clip-path="url(#clip0_1_1075)">
<g clip-path="url(#clip1_1_1075)">
<rect width="294" height="48" rx="4" fill="#4F52BD"/>
<path d="M31 23.5C31 22.9477 31.4477 22.5 32 22.5H40C40.5523 22.5 41 22.9477 41 23.5C41 24.0523 40.5523 24.5 40 24.5H32C31.4477 24.5 31 24.0523 31 23.5Z" fill="white"/>
<path d="M32 26.5C31.4477 26.5 31 26.9477 31 27.5C31 28.0523 31.4477 28.5 32 28.5H40C40.5523 28.5 41 28.0523 41 27.5C41 26.9477 40.5523 26.5 40 26.5H32Z" fill="white"/>
<path d="M30 13.5C28.3431 13.5 27 14.8431 27 16.5V30.5C27 32.1569 28.3431 33.5 30 33.5H42C43.6569 33.5 45 32.1569 45 30.5V19.7498C45 18.9217 44.6577 18.1304 44.0542 17.5634L40.5954 14.3136C40.0391 13.791 39.3045 13.5 38.5412 13.5H30ZM29 16.5C29 15.9477 29.4477 15.5 30 15.5H38V17.5C38 19.1569 39.3431 20.5 41 20.5H43V30.5C43 31.0523 42.5523 31.5 42 31.5H30C29.4477 31.5 29 31.0523 29 30.5V16.5ZM42.1302 18.5H41C40.4477 18.5 40 18.0523 40 17.5V16.4985L42.1302 18.5Z" fill="white"/>
<path d="M59.4143 23.904C60.0223 23.904 60.5503 23.828 60.9983 23.676C61.4543 23.524 61.8263 23.316 62.1143 23.052C62.4103 22.78 62.6303 22.46 62.7743 22.092C62.9183 21.724 62.9903 21.32 62.9903 20.88C62.9903 20 62.6983 19.324 62.1143 18.852C61.5383 18.38 60.6543 18.144 59.4623 18.144H57.3983V23.904H59.4143ZM67.7183 33H64.8023C64.2503 33 63.8503 32.784 63.6023 32.352L59.9543 26.796C59.8183 26.588 59.6663 26.44 59.4983 26.352C59.3383 26.264 59.0983 26.22 58.7783 26.22H57.3983V33H54.1703V15.648H59.4623C60.6383 15.648 61.6463 15.772 62.4863 16.02C63.3343 16.26 64.0263 16.6 64.5623 17.04C65.1063 17.48 65.5063 18.008 65.7623 18.624C66.0183 19.232 66.1463 19.904 66.1463 20.64C66.1463 21.224 66.0583 21.776 65.8823 22.296C65.7143 22.816 65.4663 23.288 65.1383 23.712C64.8183 24.136 64.4183 24.508 63.9383 24.828C63.4663 25.148 62.9263 25.4 62.3183 25.584C62.5263 25.704 62.7183 25.848 62.8943 26.016C63.0703 26.176 63.2303 26.368 63.3743 26.592L67.7183 33ZM76.2593 25.428C76.2593 25.044 76.2033 24.684 76.0913 24.348C75.9873 24.004 75.8273 23.704 75.6113 23.448C75.3953 23.192 75.1193 22.992 74.7833 22.848C74.4553 22.696 74.0713 22.62 73.6313 22.62C72.7753 22.62 72.0993 22.864 71.6033 23.352C71.1153 23.84 70.8033 24.532 70.6673 25.428H76.2593ZM70.6073 27.216C70.6553 27.848 70.7673 28.396 70.9433 28.86C71.1193 29.316 71.3513 29.696 71.6393 30C71.9273 30.296 72.2673 30.52 72.6593 30.672C73.0593 30.816 73.4993 30.888 73.9793 30.888C74.4593 30.888 74.8713 30.832 75.2153 30.72C75.5673 30.608 75.8713 30.484 76.1273 30.348C76.3913 30.212 76.6193 30.088 76.8113 29.976C77.0113 29.864 77.2033 29.808 77.3873 29.808C77.6353 29.808 77.8193 29.9 77.9393 30.084L78.7913 31.164C78.4633 31.548 78.0953 31.872 77.6873 32.136C77.2793 32.392 76.8513 32.6 76.4033 32.76C75.9633 32.912 75.5113 33.02 75.0473 33.084C74.5913 33.148 74.1473 33.18 73.7153 33.18C72.8593 33.18 72.0633 33.04 71.3273 32.76C70.5913 32.472 69.9513 32.052 69.4073 31.5C68.8633 30.94 68.4353 30.252 68.1233 29.436C67.8113 28.612 67.6553 27.66 67.6553 26.58C67.6553 25.74 67.7913 24.952 68.0633 24.216C68.3353 23.472 68.7233 22.828 69.2273 22.284C69.7393 21.732 70.3593 21.296 71.0873 20.976C71.8233 20.656 72.6513 20.496 73.5713 20.496C74.3473 20.496 75.0633 20.62 75.7193 20.868C76.3753 21.116 76.9393 21.48 77.4113 21.96C77.8833 22.432 78.2513 23.016 78.5153 23.712C78.7873 24.4 78.9233 25.188 78.9233 26.076C78.9233 26.524 78.8753 26.828 78.7793 26.988C78.6833 27.14 78.4993 27.216 78.2273 27.216H70.6073ZM87.6516 27.744C86.7956 27.784 86.0756 27.86 85.4916 27.972C84.9076 28.076 84.4396 28.212 84.0876 28.38C83.7356 28.548 83.4836 28.744 83.3316 28.968C83.1796 29.192 83.1036 29.436 83.1036 29.7C83.1036 30.22 83.2556 30.592 83.5596 30.816C83.8716 31.04 84.2756 31.152 84.7716 31.152C85.3796 31.152 85.9036 31.044 86.3436 30.828C86.7916 30.604 87.2276 30.268 87.6516 29.82V27.744ZM80.8596 22.404C82.2756 21.108 83.9796 20.46 85.9716 20.46C86.6916 20.46 87.3356 20.58 87.9036 20.82C88.4716 21.052 88.9516 21.38 89.3436 21.804C89.7356 22.22 90.0316 22.72 90.2316 23.304C90.4396 23.888 90.5436 24.528 90.5436 25.224V33H89.1996C88.9196 33 88.7036 32.96 88.5516 32.88C88.3996 32.792 88.2796 32.62 88.1916 32.364L87.9276 31.476C87.6156 31.756 87.3116 32.004 87.0156 32.22C86.7196 32.428 86.4116 32.604 86.0916 32.748C85.7716 32.892 85.4276 33 85.0596 33.072C84.6996 33.152 84.2996 33.192 83.8596 33.192C83.3396 33.192 82.8596 33.124 82.4196 32.988C81.9796 32.844 81.5996 32.632 81.2796 32.352C80.9596 32.072 80.7116 31.724 80.5356 31.308C80.3596 30.892 80.2716 30.408 80.2716 29.856C80.2716 29.544 80.3236 29.236 80.4276 28.932C80.5316 28.62 80.6996 28.324 80.9316 28.044C81.1716 27.764 81.4796 27.5 81.8556 27.252C82.2316 27.004 82.6916 26.788 83.2356 26.604C83.7876 26.42 84.4276 26.272 85.1556 26.16C85.8836 26.04 86.7156 25.968 87.6516 25.944V25.224C87.6516 24.4 87.4756 23.792 87.1236 23.4C86.7716 23 86.2636 22.8 85.5996 22.8C85.1196 22.8 84.7196 22.856 84.3996 22.968C84.0876 23.08 83.8116 23.208 83.5716 23.352C83.3316 23.488 83.1116 23.612 82.9116 23.724C82.7196 23.836 82.5036 23.892 82.2636 23.892C82.0556 23.892 81.8796 23.84 81.7356 23.736C81.5916 23.624 81.4756 23.496 81.3876 23.352L80.8596 22.404ZM101.063 23.832C100.727 23.424 100.359 23.136 99.9591 22.968C99.5671 22.8 99.1431 22.716 98.6871 22.716C98.2391 22.716 97.8351 22.8 97.4751 22.968C97.1151 23.136 96.8071 23.392 96.5511 23.736C96.2951 24.072 96.0991 24.504 95.9631 25.032C95.8271 25.552 95.7591 26.168 95.7591 26.88C95.7591 27.6 95.8151 28.212 95.9271 28.716C96.0471 29.212 96.2151 29.62 96.4311 29.94C96.6471 30.252 96.9111 30.48 97.2231 30.624C97.5351 30.76 97.8831 30.828 98.2671 30.828C98.8831 30.828 99.4071 30.7 99.8391 30.444C100.271 30.188 100.679 29.824 101.063 29.352V23.832ZM104.027 15.168V33H102.215C101.823 33 101.575 32.82 101.471 32.46L101.219 31.272C100.723 31.84 100.151 32.3 99.5031 32.652C98.8631 33.004 98.1151 33.18 97.2591 33.18C96.5871 33.18 95.9711 33.04 95.4111 32.76C94.8511 32.48 94.3671 32.076 93.9591 31.548C93.5591 31.012 93.2471 30.352 93.0231 29.568C92.8071 28.784 92.6991 27.888 92.6991 26.88C92.6991 25.968 92.8231 25.12 93.0711 24.336C93.3191 23.552 93.6751 22.872 94.1391 22.296C94.6031 21.72 95.1591 21.272 95.8071 20.952C96.4551 20.624 97.1831 20.46 97.9911 20.46C98.6791 20.46 99.2671 20.568 99.7551 20.784C100.243 21 100.679 21.292 101.063 21.66V15.168H104.027ZM116.892 33.192C115.82 33.192 114.996 32.892 114.42 32.292C113.852 31.684 113.568 30.848 113.568 29.784V22.908H112.308C112.148 22.908 112.012 22.856 111.9 22.752C111.788 22.648 111.732 22.492 111.732 22.284V21.108L113.712 20.784L114.336 17.424C114.376 17.264 114.452 17.14 114.564 17.052C114.676 16.964 114.82 16.92 114.996 16.92H116.532V20.796H119.82V22.908H116.532V29.58C116.532 29.964 116.624 30.264 116.808 30.48C117 30.696 117.26 30.804 117.588 30.804C117.772 30.804 117.924 30.784 118.044 30.744C118.172 30.696 118.28 30.648 118.368 30.6C118.464 30.552 118.548 30.508 118.62 30.468C118.692 30.42 118.764 30.396 118.836 30.396C118.924 30.396 118.996 30.42 119.052 30.468C119.108 30.508 119.168 30.572 119.232 30.66L120.12 32.1C119.688 32.46 119.192 32.732 118.632 32.916C118.072 33.1 117.492 33.192 116.892 33.192ZM124.682 22.008C125.162 21.56 125.69 21.196 126.266 20.916C126.842 20.636 127.518 20.496 128.294 20.496C128.966 20.496 129.562 20.612 130.082 20.844C130.602 21.068 131.034 21.388 131.378 21.804C131.73 22.212 131.994 22.704 132.17 23.28C132.354 23.848 132.446 24.476 132.446 25.164V33H129.482V25.164C129.482 24.412 129.31 23.832 128.966 23.424C128.622 23.008 128.098 22.8 127.394 22.8C126.882 22.8 126.402 22.916 125.954 23.148C125.506 23.38 125.082 23.696 124.682 24.096V33H121.718V15.168H124.682V22.008ZM143.197 25.428C143.197 25.044 143.141 24.684 143.029 24.348C142.925 24.004 142.765 23.704 142.549 23.448C142.333 23.192 142.057 22.992 141.721 22.848C141.393 22.696 141.009 22.62 140.569 22.62C139.713 22.62 139.037 22.864 138.541 23.352C138.053 23.84 137.741 24.532 137.605 25.428H143.197ZM137.545 27.216C137.593 27.848 137.705 28.396 137.881 28.86C138.057 29.316 138.289 29.696 138.577 30C138.865 30.296 139.205 30.52 139.597 30.672C139.997 30.816 140.437 30.888 140.917 30.888C141.397 30.888 141.809 30.832 142.153 30.72C142.505 30.608 142.809 30.484 143.065 30.348C143.329 30.212 143.557 30.088 143.749 29.976C143.949 29.864 144.141 29.808 144.325 29.808C144.573 29.808 144.757 29.9 144.877 30.084L145.729 31.164C145.401 31.548 145.033 31.872 144.625 32.136C144.217 32.392 143.789 32.6 143.341 32.76C142.901 32.912 142.449 33.02 141.985 33.084C141.529 33.148 141.085 33.18 140.653 33.18C139.797 33.18 139.001 33.04 138.265 32.76C137.529 32.472 136.889 32.052 136.345 31.5C135.801 30.94 135.373 30.252 135.061 29.436C134.749 28.612 134.593 27.66 134.593 26.58C134.593 25.74 134.729 24.952 135.001 24.216C135.273 23.472 135.661 22.828 136.165 22.284C136.677 21.732 137.297 21.296 138.025 20.976C138.761 20.656 139.589 20.496 140.509 20.496C141.285 20.496 142.001 20.62 142.657 20.868C143.313 21.116 143.877 21.48 144.349 21.96C144.821 22.432 145.189 23.016 145.453 23.712C145.725 24.4 145.861 25.188 145.861 26.076C145.861 26.524 145.813 26.828 145.717 26.988C145.621 27.14 145.437 27.216 145.165 27.216H137.545ZM168.693 24.3V31.32C167.813 31.968 166.873 32.444 165.873 32.748C164.881 33.044 163.817 33.192 162.681 33.192C161.265 33.192 159.981 32.972 158.829 32.532C157.685 32.092 156.705 31.48 155.889 30.696C155.081 29.912 154.457 28.976 154.017 27.888C153.577 26.8 153.357 25.612 153.357 24.324C153.357 23.02 153.569 21.824 153.993 20.736C154.417 19.648 155.017 18.712 155.793 17.928C156.577 17.144 157.525 16.536 158.637 16.104C159.749 15.672 160.997 15.456 162.381 15.456C163.085 15.456 163.741 15.512 164.349 15.624C164.965 15.736 165.533 15.892 166.053 16.092C166.581 16.284 167.061 16.52 167.493 16.8C167.925 17.08 168.321 17.388 168.681 17.724L167.757 19.188C167.613 19.42 167.425 19.564 167.193 19.62C166.961 19.668 166.709 19.608 166.437 19.44C166.173 19.288 165.909 19.136 165.645 18.984C165.381 18.832 165.085 18.7 164.757 18.588C164.437 18.476 164.073 18.384 163.665 18.312C163.265 18.24 162.801 18.204 162.273 18.204C161.417 18.204 160.641 18.348 159.945 18.636C159.257 18.924 158.669 19.336 158.181 19.872C157.693 20.408 157.317 21.052 157.053 21.804C156.789 22.556 156.657 23.396 156.657 24.324C156.657 25.316 156.797 26.204 157.077 26.988C157.365 27.764 157.765 28.424 158.277 28.968C158.797 29.504 159.421 29.916 160.149 30.204C160.877 30.484 161.689 30.624 162.585 30.624C163.225 30.624 163.797 30.556 164.301 30.42C164.805 30.284 165.297 30.1 165.777 29.868V26.724H163.593C163.385 26.724 163.221 26.668 163.101 26.556C162.989 26.436 162.933 26.292 162.933 26.124V24.3H168.693ZM181.756 20.688V33H179.944C179.552 33 179.304 32.82 179.2 32.46L178.996 31.476C178.492 31.988 177.936 32.404 177.328 32.724C176.72 33.036 176.004 33.192 175.18 33.192C174.508 33.192 173.912 33.08 173.392 32.856C172.88 32.624 172.448 32.3 172.096 31.884C171.744 31.468 171.476 30.976 171.292 30.408C171.116 29.832 171.028 29.2 171.028 28.512V20.688H173.992V28.512C173.992 29.264 174.164 29.848 174.508 30.264C174.86 30.672 175.384 30.876 176.08 30.876C176.592 30.876 177.072 30.764 177.52 30.54C177.968 30.308 178.392 29.992 178.792 29.592V20.688H181.756ZM187.766 20.688V33H184.79V20.688H187.766ZM188.174 17.1C188.174 17.356 188.122 17.596 188.018 17.82C187.914 18.044 187.774 18.24 187.598 18.408C187.43 18.576 187.23 18.712 186.998 18.816C186.766 18.912 186.518 18.96 186.254 18.96C185.998 18.96 185.754 18.912 185.522 18.816C185.298 18.712 185.102 18.576 184.934 18.408C184.766 18.24 184.63 18.044 184.526 17.82C184.43 17.596 184.382 17.356 184.382 17.1C184.382 16.836 184.43 16.588 184.526 16.356C184.63 16.124 184.766 15.924 184.934 15.756C185.102 15.588 185.298 15.456 185.522 15.36C185.754 15.256 185.998 15.204 186.254 15.204C186.518 15.204 186.766 15.256 186.998 15.36C187.23 15.456 187.43 15.588 187.598 15.756C187.774 15.924 187.914 16.124 188.018 16.356C188.122 16.588 188.174 16.836 188.174 17.1ZM198.516 23.832C198.18 23.424 197.812 23.136 197.412 22.968C197.02 22.8 196.596 22.716 196.14 22.716C195.692 22.716 195.288 22.8 194.928 22.968C194.568 23.136 194.26 23.392 194.004 23.736C193.748 24.072 193.552 24.504 193.416 25.032C193.28 25.552 193.212 26.168 193.212 26.88C193.212 27.6 193.268 28.212 193.38 28.716C193.5 29.212 193.668 29.62 193.884 29.94C194.1 30.252 194.364 30.48 194.676 30.624C194.988 30.76 195.336 30.828 195.72 30.828C196.336 30.828 196.86 30.7 197.292 30.444C197.724 30.188 198.132 29.824 198.516 29.352V23.832ZM201.48 15.168V33H199.668C199.276 33 199.028 32.82 198.924 32.46L198.672 31.272C198.176 31.84 197.604 32.3 196.956 32.652C196.316 33.004 195.568 33.18 194.712 33.18C194.04 33.18 193.424 33.04 192.864 32.76C192.304 32.48 191.82 32.076 191.412 31.548C191.012 31.012 190.7 30.352 190.476 29.568C190.26 28.784 190.152 27.888 190.152 26.88C190.152 25.968 190.276 25.12 190.524 24.336C190.772 23.552 191.128 22.872 191.592 22.296C192.056 21.72 192.612 21.272 193.26 20.952C193.908 20.624 194.636 20.46 195.444 20.46C196.132 20.46 196.72 20.568 197.208 20.784C197.696 21 198.132 21.292 198.516 21.66V15.168H201.48ZM212.337 25.428C212.337 25.044 212.281 24.684 212.169 24.348C212.065 24.004 211.905 23.704 211.689 23.448C211.473 23.192 211.197 22.992 210.861 22.848C210.533 22.696 210.149 22.62 209.709 22.62C208.853 22.62 208.177 22.864 207.681 23.352C207.193 23.84 206.881 24.532 206.745 25.428H212.337ZM206.685 27.216C206.733 27.848 206.845 28.396 207.021 28.86C207.197 29.316 207.429 29.696 207.717 30C208.005 30.296 208.345 30.52 208.737 30.672C209.137 30.816 209.577 30.888 210.057 30.888C210.537 30.888 210.949 30.832 211.293 30.72C211.645 30.608 211.949 30.484 212.205 30.348C212.469 30.212 212.697 30.088 212.889 29.976C213.089 29.864 213.281 29.808 213.465 29.808C213.713 29.808 213.897 29.9 214.017 30.084L214.869 31.164C214.541 31.548 214.173 31.872 213.765 32.136C213.357 32.392 212.929 32.6 212.481 32.76C212.041 32.912 211.589 33.02 211.125 33.084C210.669 33.148 210.225 33.18 209.793 33.18C208.937 33.18 208.141 33.04 207.405 32.76C206.669 32.472 206.029 32.052 205.485 31.5C204.941 30.94 204.513 30.252 204.201 29.436C203.889 28.612 203.733 27.66 203.733 26.58C203.733 25.74 203.869 24.952 204.141 24.216C204.413 23.472 204.801 22.828 205.305 22.284C205.817 21.732 206.437 21.296 207.165 20.976C207.901 20.656 208.729 20.496 209.649 20.496C210.425 20.496 211.141 20.62 211.797 20.868C212.453 21.116 213.017 21.48 213.489 21.96C213.961 22.432 214.329 23.016 214.593 23.712C214.865 24.4 215.001 25.188 215.001 26.076C215.001 26.524 214.953 26.828 214.857 26.988C214.761 27.14 214.577 27.216 214.305 27.216H206.685ZM220.19 29.808C220.526 30.216 220.89 30.504 221.282 30.672C221.682 30.84 222.102 30.924 222.542 30.924C222.998 30.924 223.406 30.844 223.766 30.684C224.134 30.516 224.446 30.26 224.702 29.916C224.958 29.564 225.154 29.12 225.29 28.584C225.426 28.04 225.494 27.392 225.494 26.64C225.494 25.288 225.27 24.312 224.822 23.712C224.374 23.104 223.73 22.8 222.89 22.8C222.322 22.8 221.826 22.932 221.402 23.196C220.978 23.452 220.574 23.816 220.19 24.288V29.808ZM220.19 22.2C220.686 21.68 221.234 21.268 221.834 20.964C222.442 20.652 223.134 20.496 223.91 20.496C224.622 20.496 225.262 20.636 225.83 20.916C226.406 21.196 226.894 21.6 227.294 22.128C227.702 22.648 228.014 23.28 228.23 24.024C228.446 24.768 228.554 25.604 228.554 26.532C228.554 27.532 228.43 28.44 228.182 29.256C227.934 30.072 227.578 30.772 227.114 31.356C226.658 31.932 226.106 32.38 225.458 32.7C224.81 33.02 224.09 33.18 223.298 33.18C222.914 33.18 222.566 33.14 222.254 33.06C221.942 32.988 221.654 32.884 221.39 32.748C221.126 32.612 220.882 32.448 220.658 32.256C220.442 32.056 220.234 31.836 220.034 31.596L219.902 32.424C219.854 32.632 219.77 32.78 219.65 32.868C219.538 32.956 219.382 33 219.182 33H217.226V15.168H220.19V22.2ZM236.291 20.496C237.203 20.496 238.031 20.644 238.775 20.94C239.527 21.236 240.167 21.656 240.695 22.2C241.231 22.744 241.643 23.408 241.931 24.192C242.219 24.976 242.363 25.852 242.363 26.82C242.363 27.796 242.219 28.676 241.931 29.46C241.643 30.244 241.231 30.912 240.695 31.464C240.167 32.016 239.527 32.44 238.775 32.736C238.031 33.032 237.203 33.18 236.291 33.18C235.371 33.18 234.535 33.032 233.783 32.736C233.031 32.44 232.387 32.016 231.851 31.464C231.323 30.912 230.911 30.244 230.615 29.46C230.327 28.676 230.183 27.796 230.183 26.82C230.183 25.852 230.327 24.976 230.615 24.192C230.911 23.408 231.323 22.744 231.851 22.2C232.387 21.656 233.031 21.236 233.783 20.94C234.535 20.644 235.371 20.496 236.291 20.496ZM236.291 30.9C237.315 30.9 238.071 30.556 238.559 29.868C239.055 29.18 239.303 28.172 239.303 26.844C239.303 25.516 239.055 24.504 238.559 23.808C238.071 23.112 237.315 22.764 236.291 22.764C235.251 22.764 234.479 23.116 233.975 23.82C233.479 24.516 233.231 25.524 233.231 26.844C233.231 28.164 233.479 29.172 233.975 29.868C234.479 30.556 235.251 30.9 236.291 30.9ZM250.072 20.496C250.984 20.496 251.812 20.644 252.556 20.94C253.308 21.236 253.948 21.656 254.476 22.2C255.012 22.744 255.424 23.408 255.712 24.192C256 24.976 256.144 25.852 256.144 26.82C256.144 27.796 256 28.676 255.712 29.46C255.424 30.244 255.012 30.912 254.476 31.464C253.948 32.016 253.308 32.44 252.556 32.736C251.812 33.032 250.984 33.18 250.072 33.18C249.152 33.18 248.316 33.032 247.564 32.736C246.812 32.44 246.168 32.016 245.632 31.464C245.104 30.912 244.692 30.244 244.396 29.46C244.108 28.676 243.964 27.796 243.964 26.82C243.964 25.852 244.108 24.976 244.396 24.192C244.692 23.408 245.104 22.744 245.632 22.2C246.168 21.656 246.812 21.236 247.564 20.94C248.316 20.644 249.152 20.496 250.072 20.496ZM250.072 30.9C251.096 30.9 251.852 30.556 252.34 29.868C252.836 29.18 253.084 28.172 253.084 26.844C253.084 25.516 252.836 24.504 252.34 23.808C251.852 23.112 251.096 22.764 250.072 22.764C249.032 22.764 248.26 23.116 247.756 23.82C247.26 24.516 247.012 25.524 247.012 26.844C247.012 28.164 247.26 29.172 247.756 29.868C248.26 30.556 249.032 30.9 250.072 30.9ZM261.369 15.168V25.38H261.921C262.121 25.38 262.277 25.356 262.389 25.308C262.509 25.252 262.629 25.144 262.749 24.984L265.809 21.204C265.937 21.036 266.077 20.908 266.229 20.82C266.389 20.732 266.593 20.688 266.841 20.688H269.553L265.725 25.26C265.453 25.62 265.157 25.896 264.837 26.088C265.005 26.208 265.153 26.348 265.281 26.508C265.417 26.668 265.545 26.84 265.665 27.024L269.769 33H267.093C266.861 33 266.661 32.964 266.493 32.892C266.325 32.812 266.185 32.672 266.073 32.472L262.929 27.804C262.817 27.62 262.701 27.5 262.581 27.444C262.461 27.388 262.281 27.36 262.041 27.36H261.369V33H258.405V15.168H261.369Z" fill="white"/>
</g>
</g>
<defs>
<clipPath id="clip0_1_1075">
<rect width="294" height="48" rx="4" fill="white"/>
</clipPath>
<clipPath id="clip1_1_1075">
<rect width="294" height="48" rx="4" fill="white"/>
</clipPath>
</defs>
</svg>
